<?xml version="1.0" encoding="UTF-8" standalone="no"?>
<!-- Created with Inkscape (http://www.inkscape.org/) -->

<svg
   xmlns:dc="http://purl.org/dc/elements/1.1/"
   xmlns:cc="http://creativecommons.org/ns#"
   xmlns:rdf="http://www.w3.org/1999/02/22-rdf-syntax-ns#"
   xmlns:svg="http://www.w3.org/2000/svg"
   xmlns="http://www.w3.org/2000/svg"
   xmlns:sodipodi="http://sodipodi.sourceforge.net/DTD/sodipodi-0.dtd"
   xmlns:inkscape="http://www.inkscape.org/namespaces/inkscape"
   width="210mm"
   height="297mm"
   viewBox="0 0 210 297"
   version="1.1"
   id="svg8"
   inkscape:version="0.92.1 r"
   sodipodi:docname="qip.svg">
  <defs
     id="defs2" />
  <sodipodi:namedview
     id="base"
     pagecolor="#ffffff"
     bordercolor="#666666"
     borderopacity="1.0"
     inkscape:pageopacity="0.0"
     inkscape:pageshadow="2"
     inkscape:zoom="0.7"
     inkscape:cx="396.85039"
     inkscape:cy="951.37038"
     inkscape:document-units="mm"
     inkscape:current-layer="layer1"
     showgrid="false"
     inkscape:snap-global="false"
     showguides="true"
     inkscape:guide-bbox="true"
     inkscape:window-width="1190"
     inkscape:window-height="889"
     inkscape:window-x="266"
     inkscape:window-y="20"
     inkscape:window-maximized="0">
    <sodipodi:guide
       position="154.21429,792.2381"
       orientation="0,1"
       id="guide4538"
       inkscape:locked="false" />
    <sodipodi:guide
       position="131.53571,660.70238"
       orientation="0,1"
       id="guide4540"
       inkscape:locked="false" />
  </sodipodi:namedview>
  <metadata
     id="metadata5">
    <rdf:RDF>
      <cc:Work
         rdf:about="">
        <dc:format>image/svg+xml</dc:format>
        <dc:type
           rdf:resource="http://purl.org/dc/dcmitype/StillImage" />
        <dc:title></dc:title>
      </cc:Work>
    </rdf:RDF>
  </metadata>
  <g
     inkscape:label="Layer 1"
     inkscape:groupmode="layer"
     id="layer1">
    <g
       style="font-style:normal;font-variant:normal;font-weight:normal;font-stretch:normal;font-size:10.58333302px;line-height:125%;font-family:'Droid Sans';-inkscape-font-specification:'Droid Sans';letter-spacing:0px;word-spacing:0px;fill:#000000;fill-opacity:1;stroke:none;stroke-width:0.26458332px;stroke-linecap:butt;stroke-linejoin:miter;stroke-opacity:1"
       id="text3682" />
    <g
       aria-label="QIP"
       style="font-style:normal;font-variant:normal;font-weight:normal;font-stretch:normal;font-size:10.58333302px;line-height:125%;font-family:'Bitstream Vera Serif';-inkscape-font-specification:'Bitstream Vera Serif';letter-spacing:0px;word-spacing:0px;fill:#000000;fill-opacity:1;stroke:none;stroke-width:0.26458332px;stroke-linecap:butt;stroke-linejoin:miter;stroke-opacity:1"
       id="text3687"
       transform="translate(2.0045215)"
       inkscape:export-xdpi="2.5976188"
       inkscape:export-ydpi="2.5976188">
      <g
         aria-label="qp"
         style="font-style:normal;font-variant:normal;font-weight:normal;font-stretch:normal;font-size:10.58333302px;line-height:125%;font-family:'Bitstream Vera Serif';-inkscape-font-specification:'Bitstream Vera Serif';letter-spacing:0px;word-spacing:0px;fill:#000000;fill-opacity:1;stroke:none;stroke-width:0.26458332px;stroke-linecap:butt;stroke-linejoin:miter;stroke-opacity:1"
         id="text4526"
         transform="matrix(11.809677,0,0,11.919173,-766.86094,-1057.7188)"
         inkscape:export-xdpi="2.441483"
         inkscape:export-ydpi="2.441483">
        <path
           d="m 73.33368,99.608349 v 6.992931 h 0.780314 v 0.67855 h -3.457153 v -0.67855 h 0.847493 v -2.46743 q -0.232544,0.46545 -0.630452,0.69537 -0.392741,0.22431 -0.971517,0.22431 -1.167888,0 -1.839681,-0.84117 -0.666626,-0.84118 -0.666626,-2.30481 0,-1.46925 0.666626,-2.304809 0.671793,-0.835564 1.839681,-0.835564 0.578776,0 0.971517,0.229921 0.397908,0.224312 0.630452,0.689761 v -0.757055 h 2.60966 v 0.678545 z m -1.829346,2.007591 q 0,-1.04305 -0.248047,-1.5085 -0.248047,-0.465445 -0.790649,-0.465445 -0.568441,0 -0.800985,0.493485 -0.227376,0.48788 -0.227376,1.77207 0,1.28419 0.232544,1.77767 0.232544,0.49349 0.795817,0.49349 0.542602,0 0.790649,-0.46545 0.248047,-0.46545 0.248047,-1.5085 z"
           style="font-style:normal;font-variant:normal;font-weight:bold;font-stretch:normal;font-family:'Bitstream Vera Serif';-inkscape-font-specification:'Bitstream Vera Serif Bold';fill:#009e00;fill-opacity:1;stroke:#000000;stroke-width:0.27562135px;stroke-opacity:1"
           id="path4533"
           inkscape:connector-curvature="0" />
        <path
           d="m 76.263079,101.62664 v 0.58999 q 0,1.04512 0.24288,1.51149 0.248046,0.46638 0.795817,0.46638 0.563273,0 0.790649,-0.49447 0.232544,-0.49447 0.232544,-1.78121 0,-1.28674 -0.232544,-1.77558 -0.227376,-0.494471 -0.790649,-0.494471 -0.547771,0 -0.795817,0.466371 -0.24288,0.46637 -0.24288,1.5115 z m -1.829345,-2.011584 h -0.785482 v -0.679893 h 2.614827 v 0.758559 q 0.232544,-0.466374 0.625285,-0.691131 0.392741,-0.230378 0.971517,-0.230378 1.173055,0 1.844849,0.842843 0.676961,0.837214 0.676961,2.303764 0,1.46655 -0.676961,2.30939 -0.671794,0.84284 -1.844849,0.84284 -0.578776,0 -0.971517,-0.22476 -0.392741,-0.23037 -0.625285,-0.69675 v 2.47234 h 0.847494 v 0.67989 h -3.462321 v -0.67989 h 0.785482 z"
           style="font-style:normal;font-variant:normal;font-weight:bold;font-stretch:normal;font-family:'Bitstream Vera Serif';-inkscape-font-specification:'Bitstream Vera Serif Bold';fill:#00a700;fill-opacity:1;stroke:#000000;stroke-width:0.27599999;stroke-miterlimit:4;stroke-dasharray:none;stroke-opacity:1"
           id="path4535"
           inkscape:connector-curvature="0" />
      </g>
    </g>
    <path
       transform="translate(2.0045215)"
       d="M 84.837858,234.54901 65.247947,106.82846 58.555201,96.591853 v -10.43111 l 89.926569,-0.518731 0.13948,11.979769 -6.63178,11.474579 -15.29862,125.22545 z"
       style="font-style:normal;font-variant:normal;font-weight:bold;font-stretch:normal;font-size:10.58333302px;line-height:125%;font-family:'Bitstream Vera Serif';-inkscape-font-specification:'Bitstream Vera Serif Bold';letter-spacing:0px;word-spacing:0px;fill:#cbf6e8;fill-opacity:1;stroke:#000000;stroke-width:7.50500011;stroke-linecap:butt;stroke-linejoin:miter;stroke-miterlimit:4;stroke-dasharray:none;stroke-opacity:1"
       id="path3698"
       inkscape:connector-curvature="0"
       sodipodi:nodetypes="ccccccccc"
       inkscape:export-xdpi="2.5976188"
       inkscape:export-ydpi="2.5976188" />
    <path
       inkscape:export-ydpi="2.5976188"
       inkscape:export-xdpi="2.5976188"
       sodipodi:nodetypes="ccccc"
       inkscape:connector-curvature="0"
       id="path5097"
       style="font-style:normal;font-variant:normal;font-weight:bold;font-stretch:normal;font-size:10.58333302px;line-height:125%;font-family:'Bitstream Vera Serif';-inkscape-font-specification:'Bitstream Vera Serif Bold';letter-spacing:0px;word-spacing:0px;fill:#d9d900;fill-opacity:1;stroke:none;stroke-width:7.50500011;stroke-linecap:butt;stroke-linejoin:miter;stroke-miterlimit:4;stroke-dasharray:none;stroke-opacity:1"
       d="M 87.105715,230.76925 70.447901,116.33485 c 25.464053,11.10896 40.177869,-9.74671 66.563029,4.4899 L 123.66704,231.298 Z"
       transform="translate(2.0045215)" />
  </g>
</svg>
